# xmcd CD database file
# Copyright (C) 1993-1996 Ti Kan
#
# Track frame offsets:
#  150
#  19031
#  40794
#  54707
#  69209
#  86841
#  108052
#  122118
#  140679
#  152736
#  170377
#  191601
#  205905
#  222801
#  234823
#  249570
#  262306
#  281242
#  296347
#  311251
#
# Disc length: 4346 seconds
#
# Revision: 3
# Processed by: cddbd v1.5.2PL0 Copyright (c) Steve Scherf et al.
# Submitted via: Advanced CD Ripper Pro 2.0
#
DISCID=2010f814
DTITLE=Various Artist - CMC Country 2003
DYEAR=2005
DGENRE=other
TTITLE0=Kasey Chambers - If I Were You
TTITLE1=Adam Brand - The Anzac
TTITLE2=Melinda Schneider - Can You Hear Me Down The Hillside
TTITLE3=Adam Harvey - When Lonely Met Love
TTITLE4=Sara Storer - Tell These Hands
TTITLE5=Lee Kernaghan - The Odyssey
TTITLE6=John Williamson With Warren H. Williams - You Are Very Welcome
TTITLE7=Beccy Cole - Little Victories
TTITLE8=Josh Arnold - Yodeo Trailer
TTITLE9=Luke O'Shea and Medicine Wheel - No Day Like Today
TTITLE10=Jimmy Little Feat. Troy Cassar Daley - Down The Road
TTITLE11=Audrey Auld - Losing Faith
TTITLE12=Bill Chambers - I Drink
TTITLE13=Michael Carr - Wham Bam
TTITLE14=Dianna Corcoran - Little Bit Crazy
TTITLE15=John Williamson - Keep Australia Beautiful
TTITLE16=Steve Forde and The Flange - What I'm Talkin' About
TTITLE17=Jake Nickolai - Faster
TTITLE18=Carter and Carter With Darren Coggan - Busy Man
TTITLE19=Catherine Britt - Help Me I'm Falling
EXTD=
EXTT0=
EXTT1=
EXTT2=
EXTT3=
EXTT4=
EXTT5=
EXTT6=
EXTT7=
EXTT8=
EXTT9=
EXTT10=
EXTT11=
EXTT12=
EXTT13=
EXTT14=
EXTT15=
EXTT16=
EXTT17=
EXTT18=
EXTT19=
PLAYORDER=
